<svg xmlns="http://www.w3.org/2000/svg" viewBox="0 0 64 64">
  <rect width="64" height="64" rx="14" fill="#0f766e"/>
  <g fill="#ffffff">
    <ellipse cx="22" cy="22" rx="6" ry="8" transform="rotate(-15 22 22)"/>
    <ellipse cx="42" cy="22" rx="6" ry="8" transform="rotate(15 42 22)"/>
    <ellipse cx="12" cy="34" rx="5" ry="7" transform="rotate(-30 12 34)"/>
    <ellipse cx="52" cy="34" rx="5" ry="7" transform="rotate(30 52 34)"/>
    <path d="M32 30c7 0 14 6 14 13 0 5-4 8-9 8-2 0-3.5-.7-5-.7s-3 .7-5 .7c-5 0-9-3-9-8 0-7 7-13 14-13z"/>
  </g>
</svg>
